<?xml version="1.0" encoding="UTF-8"?>
<svg id="katman_1" data-name="katman 1" xmlns="http://www.w3.org/2000/svg" version="1.1" xmlns:xlink="http://www.w3.org/1999/xlink" viewBox="0 0 841.89 595.28">
  <defs>
    <style>
      .cls-1 {
        fill: #006da8;
      }

      .cls-1, .cls-2, .cls-3 {
        stroke-width: 0px;
      }

      .cls-2 {
        fill: #1d1d1b;
      }

      .cls-3 {
        fill: url(#Adsız_degrade_2);
      }
    </style>
    <linearGradient id="Adsız_degrade_2" data-name="Adsız degrade 2" x1="157.9" y1="271.07" x2="269.8" y2="362.22" gradientTransform="translate(24.94 588.36) scale(1 -1)" gradientUnits="userSpaceOnUse">
      <stop offset="0" stop-color="#01a4ff"/>
      <stop offset=".79" stop-color="#01ffc2"/>
    </linearGradient>
  </defs>
  <path class="cls-2" d="M328.06,239.99h16.74l24.72,80.78,26.08-80.78h14.79l24.72,80.78,25.89-80.78h16.16l-33.09,99.27h-17.52l-23.94-73.77-24.92,73.77-17.52.19-32.12-99.47Z"/>
  <path class="cls-2" d="M581.03,239.99v99.27h-13.82l-2.14-15.96c-8.3,11.42-19.66,17.13-34.06,17.13-9.21,0-17.45-2.01-24.72-6.03-7.14-4.02-12.78-9.86-16.94-17.52-4.02-7.66-6.03-16.74-6.03-27.25s2.01-18.82,6.03-26.47c4.15-7.66,9.86-13.63,17.13-17.91,7.27-4.28,15.44-6.42,24.53-6.42,7.92,0,14.73,1.49,20.44,4.48,5.71,2.98,10.25,7.07,13.63,12.26l2.14-15.57h13.82ZM532.56,326.22c6.36,0,12-1.49,16.94-4.48,5.06-3.11,8.95-7.4,11.68-12.85,2.72-5.58,4.09-11.87,4.09-18.88s-1.36-13.5-4.09-19.08c-2.73-5.71-6.62-10.12-11.68-13.24-4.93-3.11-10.58-4.67-16.94-4.67-9.86,0-17.84,3.44-23.94,10.32-5.97,6.75-8.95,15.51-8.95,26.28s2.98,19.6,8.95,26.47c6.1,6.75,14.08,10.12,23.94,10.12Z"/>
  <path class="cls-2" d="M653.19,239.99v15.57h-7.98c-9.47,0-16.29,3.18-20.44,9.54-4.02,6.36-6.03,14.21-6.03,23.55v50.61h-15.96v-99.27h13.82l2.14,14.99c2.86-4.54,6.55-8.18,11.1-10.9,4.54-2.73,10.84-4.09,18.88-4.09h4.48Z"/>
  <path class="cls-2" d="M717.82,238.82c9.21,0,17.39,2.01,24.52,6.03,7.27,4.02,12.91,9.86,16.94,17.52,4.15,7.66,6.23,16.74,6.23,27.25s-2.08,18.82-6.23,26.47c-4.02,7.66-9.67,13.63-16.94,17.91-7.27,4.28-15.44,6.42-24.52,6.42-8.05,0-14.92-1.43-20.64-4.28-5.71-2.98-10.18-7.01-13.43-12.07v54.11h-15.96v-138.21h13.82l2.14,15.96c8.3-11.42,19.66-17.13,34.07-17.13ZM716.26,326.22c9.86,0,17.78-3.37,23.75-10.12,6.1-6.88,9.14-15.7,9.14-26.47s-3.05-19.53-9.14-26.28c-5.97-6.88-13.89-10.32-23.75-10.32-6.36,0-12.07,1.56-17.13,4.67-4.94,2.98-8.76,7.27-11.49,12.85-2.72,5.45-4.09,11.68-4.09,18.69s1.36,13.56,4.09,19.27c2.72,5.58,6.55,9.93,11.49,13.04,5.06,3.11,10.77,4.67,17.13,4.67Z"/>
  <path class="cls-1" d="M178.61,375.02h-78.99c-12.79,0-23.15-10.37-23.15-23.15v-89.89c0-12.79,10.37-23.15,23.15-23.15h113.04l-34.05,136.19Z"/>
  <path class="cls-3" d="M179.21,216.63h78.99c12.79,0,23.15,10.37,23.15,23.15v89.89c0,12.79-10.37,23.15-23.15,23.15h-113.04l34.05-136.19Z"/>
</svg>